<?xml version="1.0" standalone="no"?>
<!DOCTYPE svg PUBLIC "-//W3C//DTD SVG 20010904//EN"
 "http://www.w3.org/TR/2001/REC-SVG-20010904/DTD/svg10.dtd">
<svg version="1.0" xmlns="http://www.w3.org/2000/svg"
 width="402.132845pt" height="278.030229pt" viewBox="0 0 402.132845 278.030229"
 preserveAspectRatio="xMidYMid meet">
<metadata>
Created by potrace 1.12, written by Peter Selinger 2001-2015
</metadata>
<g transform="translate(-289.000000,629.000000) scale(0.100000,-0.100000)"
fill="#000000" stroke="none">
<path d="M4190 6248 l0 -43 613 0 612 0 37 -23 c39 -24 78 -91 78 -133 0 -49
-42 -112 -90 -136 l-44 -23 -603 0 -603 0 0 -690 c0 -379 3 -690 6 -690 4 0
160 89 348 197 187 108 348 197 356 197 13 0 549 -304 673 -381 l37 -23 0 805
0 806 -24 47 c-29 58 -58 85 -116 111 -44 20 -63 21 -662 21 l-618 0 0 -42z
m1338 -1292 l-3 -305 -312 181 -313 180 -277 -160 c-153 -88 -295 -170 -315
-182 l-38 -22 0 581 0 581 583 0 582 1 45 23 45 24 3 -298 c1 -164 1 -436 0
-604z"/>
<path d="M4190 6050 l0 -40 606 2 c565 3 608 4 618 21 8 12 8 22 0 35 -10 16
-53 17 -618 20 l-606 2 0 -40z"/>
<path d="M3478 4180 c-82 -24 -132 -86 -144 -174 -27 -197 232 -293 360 -133
41 51 49 143 17 205 -43 83 -145 129 -233 102z m126 -81 c102 -81 52 -249 -75
-249 -60 0 -129 72 -129 134 0 40 24 90 55 114 38 30 112 30 149 1z"/>
<path d="M4000 4179 c-88 -26 -140 -100 -140 -197 0 -49 5 -66 31 -105 81
-122 273 -114 341 16 26 50 29 137 5 182 -17 33 -60 77 -92 93 -32 16 -107 22
-145 11z m119 -72 c58 -29 84 -136 47 -192 -23 -35 -74 -65 -112 -65 -37 0
-94 36 -111 70 -16 31 -17 104 -2 133 21 42 61 67 109 67 25 0 56 -6 69 -13z"/>
<path d="M4955 4185 c-5 -2 -22 -6 -36 -9 -45 -10 -79 -53 -79 -101 0 -61 26
-88 102 -109 77 -22 108 -40 108 -66 0 -51 -69 -65 -145 -28 l-45 22 -21 -21
-21 -20 29 -21 c16 -11 50 -26 76 -33 108 -27 192 20 192 108 0 58 -29 85
-125 113 -71 21 -96 43 -84 75 14 37 74 40 137 8 26 -13 30 -13 43 4 7 10 14
23 14 29 0 20 -114 58 -145 49z"/>
<path d="M5795 4185 c-5 -2 -22 -6 -37 -9 -35 -8 -94 -59 -115 -100 -24 -46
-22 -132 5 -183 58 -111 218 -136 310 -49 46 43 63 79 64 136 0 70 -17 114
-61 153 -42 38 -128 65 -166 52z m93 -79 c55 -30 80 -125 49 -186 -17 -34 -74
-70 -111 -70 -37 0 -89 30 -111 64 -37 56 -11 165 46 193 31 16 98 16 127 -1z"/>
<path d="M2890 3990 l0 -190 120 0 c163 0 200 20 200 105 0 37 -35 85 -61 85
-7 0 -1 13 14 28 48 50 29 129 -35 151 -17 6 -78 11 -134 11 l-104 0 0 -190z
m211 120 c12 -7 19 -21 19 -40 0 -38 -23 -50 -99 -50 l-61 0 0 50 0 50 61 0
c33 0 69 -5 80 -10z m29 -170 c24 -24 24 -29 4 -58 -13 -20 -24 -22 -95 -22
l-79 0 0 50 0 50 75 0 c62 0 79 -4 95 -20z"/>
<path d="M4400 3990 l0 -190 30 0 c30 0 30 1 30 53 0 46 4 57 29 81 16 16 34
25 39 22 6 -3 36 -40 67 -81 54 -72 58 -75 97 -75 l40 0 -28 38 c-16 20 -52
68 -81 107 l-53 69 75 76 c41 41 75 79 75 83 0 4 -17 7 -39 7 -35 0 -44 -6
-120 -90 -46 -49 -87 -90 -92 -90 -5 0 -9 41 -9 90 l0 90 -30 0 -30 0 0 -190z"/>
<path d="M5220 4150 l0 -30 60 0 60 0 0 -160 0 -160 35 0 35 0 0 160 0 160 60
0 60 0 0 30 0 30 -155 0 -155 0 0 -30z"/>
<path d="M6163 3990 l-2 -190 34 0 35 0 0 65 0 65 44 0 c43 0 45 -2 87 -65 41
-60 47 -64 82 -65 20 0 37 3 37 7 0 3 -17 29 -38 57 -56 74 -55 72 -18 94 60
35 73 134 23 180 -36 33 -72 42 -180 42 l-102 0 -2 -190z m233 105 c20 -27 17
-62 -6 -85 -16 -16 -33 -20 -90 -20 l-70 0 0 66 0 66 76 -4 c60 -3 79 -7 90
-23z"/>
<path d="M6620 3990 l0 -190 146 0 145 0 -3 28 -3 27 -107 3 -108 3 0 49 0 50
95 0 95 0 0 30 0 30 -95 0 -95 0 0 50 0 50 105 0 105 0 0 30 0 30 -140 0 -140
0 0 -190z"/>
<path d="M3748 3669 c-22 -12 -23 -52 -4 -68 8 -7 27 -16 43 -20 32 -9 43 -37
16 -43 -10 -2 -28 0 -41 6 -29 12 -42 -2 -18 -20 44 -31 111 -8 104 37 -2 17
-15 30 -45 44 -57 26 -58 50 -3 42 29 -4 40 -1 40 8 0 24 -59 34 -92 14z"/>
<path d="M3950 3595 l0 -85 61 0 c44 0 60 3 57 13 -3 6 -23 13 -46 15 l-42 3
0 70 c0 55 -3 69 -15 69 -12 0 -15 -16 -15 -85z"/>
<path d="M4175 3657 c-58 -49 -20 -147 56 -147 42 0 64 14 79 49 36 87 -64
159 -135 98z m107 -31 c24 -35 -8 -86 -52 -86 -36 0 -52 21 -48 62 5 54 70 70
100 24z"/>
<path d="M4442 3660 c-31 -29 -38 -66 -19 -106 19 -39 53 -51 106 -38 34 8 36
11 36 49 0 38 -2 40 -32 41 -22 1 -33 -4 -33 -12 0 -8 9 -14 20 -14 26 0 27
-36 1 -43 -29 -7 -64 15 -76 47 -8 25 -6 31 18 52 22 19 32 22 53 14 32 -12
49 -4 33 16 -17 21 -81 18 -107 -6z"/>
<path d="M4701 3615 c-42 -91 -45 -105 -27 -105 8 0 18 9 21 20 5 16 15 20 50
20 34 0 44 -4 48 -20 3 -11 12 -20 21 -20 18 0 21 11 8 26 -5 5 -22 39 -37 77
-15 37 -34 67 -41 67 -8 0 -27 -29 -43 -65z m47 -33 c-28 -5 -33 4 -18 35 l13
28 12 -30 c12 -27 12 -30 -7 -33z"/>
<path d="M4920 3595 c0 -68 3 -85 15 -85 10 0 15 15 17 58 l3 57 45 -57 c25
-32 50 -58 57 -58 10 0 13 23 13 85 0 69 -3 85 -15 85 -12 0 -15 -13 -15 -57
-1 -49 -3 -55 -13 -42 -96 126 -107 128 -107 14z"/>
<path d="M5250 3595 c0 -69 3 -85 15 -85 10 0 15 11 15 35 0 34 1 35 40 35 39
0 40 -1 40 -36 0 -24 4 -34 13 -31 19 6 20 167 1 167 -9 0 -14 -11 -14 -35 0
-34 -1 -35 -40 -35 -39 0 -40 1 -40 35 0 24 -5 35 -15 35 -12 0 -15 -16 -15
-85z"/>
<path d="M5490 3595 l0 -85 65 0 c51 0 65 3 65 15 0 11 -12 15 -50 15 -43 0
-50 3 -50 19 0 16 8 20 43 23 23 2 42 8 42 13 0 6 -19 11 -42 13 -34 3 -43 7
-43 22 0 15 9 19 48 22 68 4 58 22 -15 26 l-63 3 0 -86z"/>
<path d="M5720 3595 c0 -50 4 -85 10 -85 6 0 11 5 11 10 1 6 3 15 4 20 1 6 3
15 4 20 2 21 38 9 54 -20 10 -16 25 -30 33 -30 18 0 18 5 -2 35 -15 22 -15 26
0 40 9 9 16 27 16 40 0 38 -26 55 -81 55 l-49 0 0 -85z m98 28 c3 -21 -1 -23
-36 -23 -36 0 -39 2 -39 26 0 23 3 25 36 22 29 -2 37 -8 39 -25z"/>
<path d="M5950 3595 l0 -85 65 0 c51 0 65 3 65 15 0 11 -12 15 -50 15 -43 0
-50 3 -50 19 0 16 8 20 42 23 59 4 63 28 4 28 -39 0 -46 3 -46 20 0 17 7 20
50 20 38 0 50 4 50 15 0 12 -14 15 -65 15 l-65 0 0 -85z"/>
</g>
</svg>
